HIERARCHY
ROOT Hips
{
	OFFSET 0.000000 0.000000 0.000000
	CHANNELS 6 Xposition Yposition Zposition Zrotation Yrotation Xrotation 
	JOINT LHipJoint
	{
		OFFSET 0.000000 0.000000 0.000000
		CHANNELS 3 Zrotation Yrotation Xrotation
		JOINT LeftUpLeg
		{
			OFFSET 1.363060 -1.794630 0.839290
			CHANNELS 3 Zrotation Yrotation Xrotation
			JOINT LeftLeg
			{
				OFFSET 2.448110 -6.726130 0.000000
				CHANNELS 3 Zrotation Yrotation Xrotation
				JOINT LeftFoot
				{
					OFFSET 2.562200 -7.039590 0.000000
					CHANNELS 3 Zrotation Yrotation Xrotation
					JOINT LeftToeBase
					{
						OFFSET 0.157640 -0.433110 2.322550
						CHANNELS 3 Zrotation Yrotation Xrotation
						End Site
						{
							OFFSET 0.000000 0.000000 0.000000
						}
					}
				}
			}
		}
	}
	JOINT RHipJoint
	{
		OFFSET 0.000000 0.000000 0.000000
		CHANNELS 3 Zrotation Yrotation Xrotation
		JOINT RightUpLeg
		{
			OFFSET -1.305520 -1.794630 0.839290
			CHANNELS 3 Zrotation Yrotation Xrotation
			JOINT RightLeg
			{
				OFFSET -2.542530 -6.985550 0.000000
				CHANNELS 3 Zrotation Yrotation Xrotation
				JOINT RightFoot
				{
					OFFSET -2.568260 -7.056230 0.000000
					CHANNELS 3 Zrotation Yrotation Xrotation
					JOINT RightToeBase
					{
						OFFSET -0.164730 -0.452590 2.363150
						CHANNELS 3 Zrotation Yrotation Xrotation
						End Site
						{
							OFFSET 0.000000 0.000000 0.000000
						}
					}
				}
			}
		}
	}
}
MOTION
Frames: 19
Frame Time: 0.008333
4.632533 17.378822 0.142799 -169.021235 -70.983813 -169.156470 -11.028326 -0.540823 -3.868400 -4.384518 23.497354 -21.031688 -2.204760 -0.825945 -1.431387 2.484824 17.624314 3.493978 3.802500 0.000000 -38.283600 8.731316 -0.125773 2.421470 6.041962 10.316013 -20.852445 3.030076 1.457027 -4.106285 0.579045 1.219320 9.410571 -0.421400 0.000000 -56.537300
4.629085 17.379257 0.147254 -169.324967 -70.526064 -169.012238 -11.036593 -0.508106 -3.870937 -4.396192 23.657417 -20.937713 -2.202636 -0.811940 -1.125369 2.528141 17.876608 3.276608 3.791200 -0.000001 -38.071500 8.728198 -0.147253 2.502518 5.942311 10.484601 -20.757818 3.035569 1.451640 -4.152286 0.608811 1.478733 9.534498 -0.330500 0.000001 -56.615900
4.625068 17.379707 0.154089 -169.610836 -70.090272 -168.897123 -11.048421 -0.470400 -3.868054 -4.418853 23.829519 -20.841025 -2.203559 -0.799600 -0.840659 2.565745 18.096360 3.071417 3.774200 0.000000 -37.886300 8.723907 -0.172591 2.588948 5.836864 10.645255 -20.660578 3.039919 1.446184 -4.191835 0.637052 1.719105 9.656317 -0.246300 0.000000 -56.700500
4.620769 17.380211 0.163286 -169.877994 -69.679254 -168.812873 -11.063443 -0.428505 -3.859967 -4.450521 24.012382 -20.743432 -2.207252 -0.788892 -0.577417 2.597634 18.283651 2.878757 3.752000 -0.000001 -37.731800 8.718629 -0.201540 2.679397 5.728689 10.794219 -20.559989 3.043641 1.440874 -4.228387 0.664035 1.942698 9.778955 -0.167800 0.000000 -56.791900
4.616029 17.380764 0.174856 -170.119737 -69.293374 -168.760595 -11.081518 -0.382824 -3.847028 -4.489866 24.207034 -20.648543 -2.213870 -0.779627 -0.333615 2.623604 18.436760 2.698873 3.724700 -0.000000 -37.610900 8.712522 -0.233960 2.772881 5.620833 10.928132 -20.457083 3.047525 1.436190 -4.265201 0.690109 2.152898 9.905328 -0.093801 -0.000000 -56.890700
4.611087 17.381407 0.188798 -170.337345 -68.930964 -168.738761 -11.101973 -0.333896 -3.828984 -4.535308 24.407495 -20.556637 -2.222325 -0.771805 -0.111481 2.644869 18.563039 2.532620 3.694800 -0.000001 -37.524100 8.706080 -0.268663 2.867189 5.515787 11.042735 -20.352891 3.052268 1.432338 -4.304949 0.716120 2.354853 10.038967 -0.022599 0.000000 -56.997800
4.605682 17.382220 0.205023 -170.529035 -68.588645 -168.741903 -11.124450 -0.281676 -3.804884 -4.586382 24.606611 -20.467291 -2.231426 -0.765796 0.083907 2.663056 18.672768 2.382248 3.665799 0.000000 -37.467400 8.699861 -0.304729 2.960644 5.415239 11.133902 -20.250587 3.058660 1.429737 -4.350139 0.742631 2.554720 10.183612 0.048100 0.000001 -57.113700
4.600107 17.383163 0.223552 -170.696556 -68.259204 -168.768524 -11.148191 -0.226601 -3.777491 -4.643913 24.813576 -20.386670 -2.242430 -0.760433 0.260652 2.677557 18.760053 2.243333 3.635000 0.000001 -37.443600 8.694084 -0.340529 3.051779 5.320981 11.201755 -20.151422 3.067380 1.428674 -4.401673 0.770567 2.756726 10.341351 0.119701 0.000000 -57.240500
4.593991 17.384300 0.244313 -170.840318 -67.935924 -168.810445 -11.172800 -0.168287 -3.746040 -4.709454 25.021394 -20.312462 -2.254154 -0.756332 0.410357 2.690241 18.837173 2.118775 3.606400 0.000000 -37.445900 8.689438 -0.374963 3.139277 5.232603 11.244264 -20.059505 3.078952 1.429390 -4.461004 0.800527 2.967335 10.515934 0.194600 0.000000 -57.378500
4.587399 17.385654 0.267241 -170.965266 -67.610099 -168.860987 -11.197415 -0.106923 -3.712815 -4.785606 25.235443 -20.246586 -2.267291 -0.753179 0.532858 2.701181 18.904181 2.007236 3.579700 -0.000000 -37.473800 8.686522 -0.406559 3.222240 5.148992 11.263314 -19.978208 3.093527 1.431892 -4.528503 0.833322 3.190499 10.709464 0.274201 -0.000000 -57.530400
4.580046 17.387371 0.292297 -171.076957 -67.273683 -168.909603 -11.221736 -0.042038 -3.677687 -4.875409 25.449672 -20.182616 -2.280649 -0.752012 0.615379 2.712202 18.974499 1.913308 3.559500 -0.000000 -37.514200 8.686086 -0.434512 3.299906 5.067476 11.259254 -19.911651 3.111036 1.435925 -4.604224 0.869457 3.432003 10.925395 0.360900 0.000000 -57.696100
4.571894 17.389492 0.319416 -171.181122 -66.918727 -168.948941 -11.245036 0.026094 -3.643624 -4.982171 25.670143 -20.119202 -2.294967 -0.752961 0.654191 2.723091 19.047797 1.837535 3.546100 0.000001 -37.562300 8.688807 -0.457949 3.371872 4.985150 11.236283 -19.862545 3.131037 1.441082 -4.687701 0.909114 3.694267 11.165445 0.456000 0.000000 -57.877601
4.562847 17.391932 0.348483 -171.277974 -66.538647 -168.973887 -11.266061 0.096458 -3.616586 -5.110725 25.915185 -20.062644 -2.313122 -0.755520 0.654351 2.731589 19.110223 1.777537 3.535301 0.000000 -37.624700 8.695538 -0.476339 3.438436 4.898907 11.201373 -19.834253 3.152866 1.447085 -4.779400 0.952364 3.977146 11.429247 0.559800 0.000001 -58.079200
4.552851 17.394822 0.379379 -171.375155 -66.128187 -168.975893 -11.284341 0.168851 -3.598554 -5.263388 26.181911 -20.004318 -2.334352 -0.760676 0.603871 2.738522 19.170013 1.738628 3.531000 -0.000000 -37.689801 8.707117 -0.489151 3.498757 4.804832 11.158062 -19.829039 3.175631 1.453120 -4.878218 0.999052 4.282914 11.717973 0.673600 0.000000 -58.300600
4.541993 17.398137 0.411956 -171.475151 -65.684342 -168.950417 -11.298853 0.242383 -3.594642 -5.443419 26.482451 -19.946928 -2.360560 -0.768073 0.505071 2.742177 19.217399 1.721159 3.530800 -0.000000 -37.760600 8.724363 -0.495851 3.552496 4.699607 11.112217 -19.848212 3.198323 1.458609 -4.983309 1.048843 4.609873 12.030371 0.797500 0.000000 -58.544000
4.530305 17.401868 0.445969 -171.580787 -65.205832 -168.894001 -11.309157 0.316882 -3.607868 -5.653073 26.823453 -19.891409 -2.392876 -0.777363 0.359614 2.741384 19.245788 1.726543 3.534000 -0.000001 -37.838600 8.747632 -0.496017 3.599726 4.580257 11.068197 -19.892339 3.220123 1.463122 -5.093246 1.101489 4.956492 12.364136 0.931300 -0.000001 -58.810100
4.518001 17.406026 0.481123 -171.697520 -64.694437 -168.803247 -11.315411 0.392940 -3.638171 -5.893248 27.203648 -19.837727 -2.431363 -0.788121 0.170530 2.735983 19.254142 1.755993 3.540599 -0.000000 -37.921400 8.776628 -0.489464 3.641268 4.444511 11.028605 -19.960954 3.240352 1.466470 -5.206202 1.156358 5.319519 12.715963 1.074200 0.000001 -59.095000
4.505187 17.410581 0.517080 -171.830338 -64.153735 -168.678463 -11.318577 0.471743 -3.686443 -6.167403 27.638966 -19.794656 -2.478818 -0.799065 -0.050846 2.722862 19.222589 1.810461 3.546300 0.000000 -38.025000 8.810327 -0.477206 3.679715 4.290696 10.994221 -20.051622 3.258692 1.468709 -5.319649 1.213187 5.695695 13.081557 1.225100 0.000000 -59.407301
4.492353 17.415528 0.553513 -171.985102 -63.596022 -168.519112 -11.319457 0.553661 -3.745099 -6.471204 28.098792 -19.758592 -2.531380 -0.810378 -0.300184 2.705409 19.169958 1.888195 3.554900 -0.000000 -38.132800 8.847357 -0.459873 3.715960 4.118149 10.962806 -20.162808 3.274541 1.469792 -5.430619 1.270741 6.077377 13.454709 1.381300 -0.000000 -59.726800
